<svg xmlns="http://www.w3.org/2000/svg" viewBox="0 0 6 12">
<g stroke-width=".2">
<polygon style="fill:#933;stroke:#933;" points="0,0 1,0 2,2 1,4 0,4"/>
<polygon style="fill:#393;stroke:#393;" points="0,4 1,4 2,6 1,8 0,8"/>
<polygon style="fill:#339;stroke:#339;" points="0,8 1,8 2,10 1,12 0,12"/>

<polygon style="fill:#393;stroke:#393;" points="1,0 5,0 4,2 2,2"/>
<polygon style="fill:#933;stroke:#933;" points="2,6 4,6 5,8 4,10 2,10 1,8"/>
<polygon style="fill:#339;stroke:#339;" points="2,2 4,2 5,4 4,6 2,6 1,4"/>
<polygon style="fill:#393;stroke:#393;" points="2,10 4,10 5,12 1,12"/>




</g>
</svg>