<svg xmlns="http://www.w3.org/2000/svg" viewBox="0 0 6 12">
<g stroke-width=".2">


<polygon style="fill:#6c6;stroke:#6c6;" points="1,0 5,0 4,2 2,2"/>
<polygon style="fill:#c66;stroke:#c66;" points="2,6 4,6 5,8 4,10 2,10 1,8"/>
<polygon style="fill:#66c;stroke:#66c;" points="2,2 4,2 5,4 4,6 2,6 1,4"/>
<polygon style="fill:#6c6;stroke:#6c6;" points="2,10 4,10 5,12 1,12"/>

<polygon style="fill:#c66;stroke:#c66;" points="5,0 4,2 5,4 6,4 6,0"/>
<polygon style="fill:#6c6;stroke:#6c6;" points="5,4 4,6 5,8 6,8 6,4"/>
<polygon style="fill:#66c;stroke:#66c;" points="5,8 4,10 5,12 6,12 6,8"/>


</g>
</svg>